<?xml version="1.0" encoding="UTF-8" standalone="no"?><!DOCTYPE svg PUBLIC "-//W3C//DTD SVG 1.1//EN" "http://www.w3.org/Graphics/SVG/1.1/DTD/svg11.dtd"><svg width="100%" height="100%" viewBox="0 0 432 155" version="1.1" xmlns="http://www.w3.org/2000/svg" xmlns:xlink="http://www.w3.org/1999/xlink" xml:space="preserve" xmlns:serif="http://www.serif.com/" style="fill-rule:evenodd;clip-rule:evenodd;stroke-linejoin:round;stroke-miterlimit:2;"><g><path d="M50.776,10.202c0,-4.653 1.993,-10.202 6.435,-10.202c3.103,0 6.868,4.882 11.307,14.636c-3.768,4.882 -7.764,11.315 -11.75,19.305c-3.999,-10.426 -5.992,-18.19 -5.992,-23.739" style="fill:#fff;fill-rule:nonzero;"/><path d="M119.083,104.704c-3.02,5.995 -7.007,9.483 -13.088,9.483c-6.878,0 -10.421,-4.601 -11.312,-9.933c-3.77,4.442 -8.649,5.94 -13.746,4.374c-5.548,-1.766 -9.313,-7.032 -9.313,-15.459c0,-11.541 6.427,-26.173 13.743,-32.388l-3.437,-7.605c-0.42,1.018 -3.528,7.092 -5.031,9.615l-4.586,-1.986c0,0 3.192,-7.027 3.902,-8.515c7.004,-14.84 15.027,-28.461 15.027,-37.556c0,-3.772 -2.618,-6.375 -4.813,-6.432c-6.878,-0.194 -17.246,14.771 -27.441,36.728c-8.114,17.353 -12.74,29.782 -13.447,38.867l-4.738,1.767c-6.205,-9.013 -15.343,-15.794 -26.388,-15.794c-9.311,0 -14.415,4.432 -14.415,7.55c0,2.886 2.881,3.991 4.437,4.437c13.521,3.55 18.846,14.633 23.056,31.27c6.211,24.184 22.181,40.373 45.457,40.373c24.169,0 47.233,-20.849 46.133,-48.796m-67.498,14.579l5.743,-2.692c5.646,16.662 21.912,21.225 36.964,13.387l2.334,5.703c-19.747,11.213 -38.108,4.054 -45.041,-16.398" style="fill:#fff;fill-rule:nonzero;"/><path d="M98.621,62.311c-9.572,-4.417 -21.232,16.659 -21.232,30.858c0,7.544 3.324,10.389 7.313,10.364c5.054,-0.035 10.478,-6.813 14.25,-17.914c4.659,-11.526 4.298,-21.165 -0.331,-23.308m-12.523,35.792c-2.844,0 -5.154,-2.299 -5.154,-5.153c0,-2.837 2.31,-5.146 5.154,-5.146c2.846,0 5.148,2.309 5.148,5.146c0,2.854 -2.302,5.153 -5.148,5.153" style="fill:#fff;fill-rule:nonzero;"/><path d="M115.088,74.979c-4.877,0 -11.366,9.978 -13.807,19.513c-1.546,5.328 -1.941,14.136 4.715,14.136c6.972,0 12.633,-10.358 14.188,-19.68c1.332,-7.982 -0.661,-13.969 -5.096,-13.969m-6.783,28.84c-2.555,0 -4.633,-2.073 -4.633,-4.634c0,-2.558 2.078,-4.635 4.633,-4.635c2.561,0 4.636,2.077 4.636,4.635c0,2.561 -2.075,4.634 -4.636,4.634" style="fill:#fff;fill-rule:nonzero;"/><path d="M104.228,14.632c-0.66,0 -1.274,-0.122 -1.844,-0.366c-0.573,-0.244 -1.07,-0.577 -1.491,-1.008c-0.418,-0.428 -0.751,-0.93 -0.993,-1.5c-0.241,-0.573 -0.365,-1.19 -0.365,-1.847c0,-0.659 0.124,-1.274 0.365,-1.846c0.242,-0.572 0.575,-1.07 0.993,-1.495c0.421,-0.423 0.918,-0.759 1.491,-1.008c0.57,-0.246 1.192,-0.373 1.856,-0.373c0.659,0 1.274,0.127 1.841,0.373c0.568,0.249 1.063,0.585 1.481,1.008c0.42,0.425 0.751,0.923 0.995,1.495c0.244,0.572 0.366,1.187 0.366,1.846c0,0.657 -0.122,1.274 -0.366,1.847c-0.244,0.57 -0.575,1.072 -0.995,1.5c-0.418,0.431 -0.916,0.764 -1.488,1.008c-0.572,0.244 -1.187,0.366 -1.846,0.366m0,-0.908c0.532,0 1.025,-0.095 1.475,-0.289c0.451,-0.194 0.841,-0.463 1.17,-0.806c0.328,-0.341 0.584,-0.747 0.771,-1.21c0.184,-0.465 0.276,-0.96 0.276,-1.498c0,-0.527 -0.092,-1.027 -0.276,-1.49c-0.187,-0.465 -0.443,-0.869 -0.771,-1.212c-0.329,-0.341 -0.719,-0.612 -1.17,-0.811c-0.45,-0.199 -0.94,-0.299 -1.463,-0.299c-0.53,0 -1.023,0.1 -1.471,0.299c-0.452,0.199 -0.846,0.47 -1.177,0.811c-0.333,0.343 -0.594,0.747 -0.778,1.212c-0.187,0.463 -0.277,0.963 -0.277,1.49c0,0.538 0.09,1.033 0.277,1.498c0.184,0.463 0.443,0.869 0.771,1.21c0.326,0.343 0.719,0.612 1.167,0.806c0.453,0.194 0.946,0.289 1.476,0.289m-1.635,-6.221l1.839,0c0.298,0 0.552,0.045 0.764,0.129c0.211,0.087 0.388,0.194 0.53,0.334c0.136,0.131 0.238,0.283 0.303,0.45c0.062,0.167 0.092,0.331 0.092,0.495c0,0.304 -0.074,0.582 -0.229,0.831c-0.154,0.249 -0.388,0.436 -0.704,0.56l1.165,1.976l-1.031,0l-1.065,-1.851l-0.758,0l0,1.851l-0.906,0l0,-4.775Zm1.799,2.207c0.279,0 0.48,-0.07 0.607,-0.204c0.127,-0.137 0.189,-0.316 0.189,-0.543c0,-0.233 -0.067,-0.41 -0.204,-0.527c-0.132,-0.117 -0.348,-0.177 -0.647,-0.177l-0.838,0l0,1.451l0.893,0Z" style="fill:#fff;fill-rule:nonzero;"/><path d="M143.116,113.79l24.953,0l0,5.121l-19.237,0l0,12.151l14.651,0l0,5.063l-14.651,0l0,17.391l-5.716,0l0,-39.726Z" style="fill:#fff;fill-rule:nonzero;"/><path d="M172.352,113.79l5.716,0l0,23.226c0,1.789 0.159,3.427 0.478,4.915c0.316,1.49 0.863,2.769 1.637,3.842c0.774,1.072 1.807,1.896 3.098,2.47c1.289,0.578 2.926,0.864 4.912,0.864c1.946,0 3.563,-0.286 4.855,-0.864c1.289,-0.574 2.321,-1.398 3.098,-2.47c0.774,-1.073 1.319,-2.352 1.637,-3.842c0.316,-1.488 0.478,-3.126 0.478,-4.915l0,-23.226l5.715,0l0,24.597c0,2.265 -0.318,4.377 -0.953,6.343c-0.637,1.966 -1.597,3.673 -2.888,5.123c-1.292,1.449 -2.929,2.591 -4.915,3.424c-1.983,0.834 -4.327,1.249 -7.027,1.249c-2.7,0 -5.041,-0.415 -7.027,-1.249c-1.986,-0.833 -3.633,-1.975 -4.942,-3.424c-1.311,-1.45 -2.284,-3.157 -2.918,-5.123c-0.638,-1.966 -0.954,-4.078 -0.954,-6.343l0,-24.597Z" style="fill:#fff;fill-rule:nonzero;"/><path d="M209.999,113.79l5.778,0l21.678,31.03l0,-31.03l5.599,0l0,39.726l-5.718,0l-21.738,-31.089l0,31.089l-5.599,0l0,-39.726Z" style="fill:#fff;fill-rule:nonzero;"/><path d="M248.879,113.79l13.28,0c3.136,0 6.025,0.388 8.665,1.162c2.64,0.774 4.914,1.986 6.82,3.633c1.906,1.647 3.394,3.723 4.467,6.223c1.072,2.501 1.607,5.48 1.607,8.934c0,3.334 -0.535,6.245 -1.607,8.726c-1.073,2.481 -2.561,4.546 -4.467,6.193c-1.906,1.648 -4.19,2.869 -6.848,3.663c-2.66,0.794 -5.561,1.192 -8.696,1.192l-13.221,0l0,-39.726Zm13.101,34.603c4.964,0 8.824,-1.222 11.583,-3.663c2.76,-2.441 4.141,-6.064 4.141,-10.869c0,-4.845 -1.331,-8.547 -3.991,-11.108c-2.66,-2.56 -6.632,-3.842 -11.91,-3.842l-7.206,0l0,29.482l7.383,0Z" style="fill:#fff;fill-rule:nonzero;"/><path d="M143.109,62.486l11.021,0l0,15.192l15.315,0l0,-15.192l11.021,0l0,41.528l-11.021,0l0,-16.249l-15.315,0l0,16.249l-11.021,0l0,-41.528Z" style="fill:#fff;fill-rule:nonzero;"/><path d="M187.582,62.486l29.885,0l0,9.526l-18.864,0l0,6.412l15.502,0l0,8.965l-15.502,0l0,7.1l20.171,0l0,9.525l-31.192,0l0,-41.528Z" style="fill:#fff;fill-rule:nonzero;"/><path d="M224.503,62.486l17.181,0c2.242,0 4.265,0.291 6.072,0.871c1.806,0.583 3.349,1.443 4.636,2.586c1.289,1.142 2.284,2.563 2.991,4.265c0.704,1.702 1.057,3.672 1.057,5.914c0,2.74 -0.602,5.116 -1.806,7.127c-1.205,2.015 -2.802,3.623 -4.793,4.827l8.903,15.938l-11.829,0l-7.035,-14.134l-4.608,0l0,14.134l-10.769,0l0,-41.528Zm16.124,18.74c1.453,0 2.635,-0.446 3.548,-1.339c0.913,-0.891 1.371,-2.085 1.371,-3.578c0,-1.578 -0.435,-2.822 -1.309,-3.738c-0.87,-0.91 -2.095,-1.368 -3.672,-1.368l-5.293,0l0,10.023l5.355,0Z" style="fill:#fff;fill-rule:nonzero;"/><rect x="263.601" y="62.486" width="11.021" height="41.528" style="fill:#fff;"/><path d="M292.364,72.137l-12.763,0l0,-9.65l36.546,0l0,9.65l-12.638,0l0,31.877l-11.145,0l0,-31.877Z" style="fill:#fff;fill-rule:nonzero;"/><path d="M326.047,62.486l12.638,0l14.694,41.528l-11.889,0l-2.68,-8.592l-13.885,0l-2.737,8.592l-11.394,0l15.253,-41.528Zm10.523,24.903l-4.608,-15.253l-4.795,15.253l9.403,0Z" style="fill:#fff;fill-rule:nonzero;"/><path d="M376.041,80.293l17.057,0l0,18.74c-2.488,2.117 -5.342,3.642 -8.557,4.578c-3.217,0.933 -6.445,1.398 -9.685,1.398c-3.359,0 -6.38,-0.507 -9.057,-1.525c-2.678,-1.015 -4.949,-2.468 -6.816,-4.357c-1.868,-1.889 -3.292,-4.18 -4.265,-6.88c-0.975,-2.697 -1.465,-5.728 -1.465,-9.09c0,-3.155 0.53,-6.071 1.587,-8.749c1.06,-2.675 2.543,-4.979 4.454,-6.91c1.909,-1.931 4.181,-3.434 6.818,-4.514c2.633,-1.08 5.549,-1.62 8.744,-1.62c3.447,0 6.674,0.573 9.685,1.715c3.008,1.142 5.529,3.041 7.564,5.696l-7.161,7.221c-1.286,-1.284 -2.667,-2.344 -4.141,-3.175c-1.473,-0.829 -3.185,-1.245 -5.133,-1.245c-1.787,0 -3.364,0.311 -4.735,0.934c-1.369,0.624 -2.521,1.463 -3.454,2.523c-0.933,1.057 -1.65,2.301 -2.147,3.735c-0.498,1.43 -0.749,2.956 -0.749,4.576c0,1.784 0.271,3.394 0.811,4.825c0.537,1.433 1.284,2.657 2.242,3.672c0.953,1.018 2.115,1.807 3.483,2.367c1.371,0.56 2.907,0.841 4.609,0.841c1.368,0 2.677,-0.167 3.921,-0.498c1.247,-0.333 2.451,-0.913 3.611,-1.744l0,-3.984l-7.221,0l0,-8.53Z" style="fill:#fff;fill-rule:nonzero;"/><path d="M399.885,62.486l29.885,0l0,9.526l-18.864,0l0,6.412l15.502,0l0,8.965l-15.502,0l0,7.1l20.173,0l0,9.525l-31.194,0l0,-41.528Z" style="fill:#fff;fill-rule:nonzero;"/></g></svg>