<?xml version="1.0" encoding="UTF-8" standalone="no"?><!DOCTYPE svg PUBLIC "-//W3C//DTD SVG 1.1//EN" "http://www.w3.org/Graphics/SVG/1.1/DTD/svg11.dtd"><svg width="100%" height="100%" viewBox="0 0 130 210" version="1.1" xmlns="http://www.w3.org/2000/svg" xmlns:xlink="http://www.w3.org/1999/xlink" xml:space="preserve" xmlns:serif="http://www.serif.com/" style="fill-rule:evenodd;clip-rule:evenodd;stroke-linejoin:round;stroke-miterlimit:2;"><g id="NHMF"><path d="M42.051,89.412l0,-3.056l-11.488,0l0,16.679l4.155,0l0,-6.847l7.333,0l0,-3.058l-7.333,0l0,-3.718m17.953,13.834c4.542,0 8.282,-1.908 8.282,-7.436l0,-9.466l-4.128,0l0,9.294c0,2.984 -2.017,4.134 -4.204,4.134c-2.38,0 -4.104,-1.443 -4.104,-3.84l0,-9.588l-4.129,0l0,9.489c0,5.163 3.474,7.413 8.283,7.413m15.288,-10.886l9.051,10.689l3.433,0l0,-16.682l-4.081,0l0,10.2l-8.74,-10.2l-3.744,0l0,16.682l4.081,0m19.807,-3.059l0,-10.566l2.611,0c3.857,0 5.365,2.422 5.365,5.283c0,2.447 -1.221,5.283 -5.317,5.283m9.509,-5.258c0,-4.574 -3.066,-8.365 -9.032,-8.365l-7.208,0l0,16.682l6.755,0c6.515,0 9.485,-3.523 9.485,-8.317m4.695,-26.619l2.445,-6.482l2.689,6.482m-5.159,-10.47l-6.721,16.682l4.398,0l1.249,-3.301l7.454,0l1.369,3.301l4.473,0l-7.405,-16.682m-16.879,16.682l4.156,0l0,-16.682l-4.156,0l0,16.682Zm-11.834,-13.618l2.103,0c1.564,0 2.37,0.637 2.37,1.885c0,1.419 -1.124,1.908 -2.272,1.908l-2.201,0m0,3.056l1.199,0c2.248,0 2.909,3.206 4.693,6.777l4.57,0c-2.345,-4.894 -2.86,-6.947 -4.57,-7.803c1.905,-0.881 2.859,-2.25 2.859,-4.085c0,-2.494 -2.028,-4.794 -5.451,-4.794l-7.455,0l0,16.682l4.155,0m-35.624,-5.181l4.423,-5.235l0,10.421l4.089,0l0,-16.681l-3.559,0l-5.266,6.187l-5.265,-6.187l-3.559,0l0,16.681l4.087,0l0,-10.421l4.425,5.235m-23.563,5.19l12.297,0l0,-3.056l-8.141,0l0,-4.013l7.602,0l0,-3.056l-7.602,0l0,-3.498l7.969,0l0,-3.058l-12.125,0m39.134,8.32c0,-3.056 1.992,-5.086 5,-5.086c2.988,0 4.978,2.03 4.978,5.086c0,3.057 -1.99,5.087 -4.978,5.087c-3.008,0 -5,-2.03 -5,-5.087m14.03,0c0,-4.01 -3.079,-8.559 -9.03,-8.559c-5.95,0 -9.052,4.524 -9.052,8.559c0,4.255 3.265,8.558 9.052,8.558c5.674,0 9.03,-4.278 9.03,-8.558m47.957,-8.317l-4.155,0l0,16.682l12.126,0.006l0,-3.057l-7.971,-0.007m-104.368,3.05l0,-16.681l-3.559,0l-5.267,6.187l-5.264,-6.187l-3.559,0l0,16.681l4.087,0l0,-10.421l4.425,5.235l0.625,0l4.423,-5.235l0,10.421m19.694,-42.308l0,-3.057l-12.124,0l0,16.682l12.296,0l0,-3.059l-8.141,0l0,-4.012l7.604,0l0,-3.056l-7.604,0l0,-3.498m18.771,3.78l-2.2,0l0,-3.79l2.102,0c1.564,0 2.371,0.635 2.371,1.883c0,1.418 -1.124,1.907 -2.273,1.907m6.55,-2.054c0,-2.495 -2.028,-4.794 -5.451,-4.794l-7.455,0l0,16.681l4.156,0l0,-6.776l1.198,0c2.248,0 2.908,3.205 4.693,6.776l4.572,0c-2.347,-4.891 -2.861,-6.946 -4.572,-7.803c1.906,-0.881 2.859,-2.249 2.859,-4.084m8.68,-4.794l-4.155,0l0,16.681l4.155,0l0,-16.681Zm2.776,3.052l6.038,0l0,13.623l4.156,0l0,-13.623l6.038,0l0,-3.058l-16.232,0m24.023,3.993l2.69,6.482l-5.134,0m6.355,2.911l1.369,3.301l4.473,0l-7.405,-16.681l-4.817,0l-6.723,16.681l4.4,0l1.249,-3.301m24.136,3.485c2.695,0 5.78,-0.954 7.028,-2.25l0,-6.824l-6.589,0l0,3.056l2.426,0l0,1.958c-1.225,0.489 -1.739,0.586 -2.768,0.586c-3.454,0 -5.78,-1.957 -5.78,-4.916c0,-2.47 1.592,-5.258 6.122,-5.258c2.059,0 4.116,0.512 6.247,1.54l0,-3.645c-1.665,-0.807 -4.09,-1.369 -6.589,-1.369c-5.952,0 -10.067,3.497 -10.067,8.585c0,4.991 4.14,8.537 9.97,8.537m23.276,-3.246l-8.139,0l0,-4.012l7.602,0l0,-3.057l-7.602,0l0,-3.498l7.969,0l0,-3.058l-12.125,0l0,16.681l12.295,0m-113.15,0.027l0,-16.681l-4.196,0l0,6.701l-8.391,0l0,-6.701l-4.196,0l0,16.681l4.196,0l0,-6.749l8.391,0l0,6.749m93.932,-41.372l2.69,6.482l-5.135,0m-1.099,2.911l7.457,0l1.369,3.301l4.472,0l-7.406,-16.681l-4.816,0l-6.722,16.681l4.4,0m-18.245,-10.683l9.053,10.689l3.433,0l0,-16.682l-4.081,0l0,10.2l-8.74,-10.2l-3.746,0l0,16.682l4.081,0m-27.258,-16.687l-4.155,0l0,16.681l4.155,0l0,-16.681Zm-16.2,16.681l4.156,0l0,-13.623l6.038,0l0,-3.058l-16.232,0l0,3.058l6.038,0m-12.873,0.923l2.689,6.482l-5.134,0m-1.099,2.911l7.455,0l1.368,3.301l4.475,0l-7.407,-16.679l-4.817,0l-6.721,16.679l4.399,0m99.647,-3.022l0,-13.623l-4.156,0l0,16.682l12.127,0.006l0,-3.059m-125.915,-7.667l9.053,10.689l3.433,0l0,-16.681l-4.083,0l0,10.199l-8.74,-10.199l-3.744,0l0,16.681l4.081,0m63.662,-13.512c2.987,0 4.977,2.028 4.977,5.086c0,3.057 -1.99,5.087 -4.977,5.087c-3.009,0 -5.001,-2.03 -5.001,-5.087c0,-3.058 1.992,-5.086 5.001,-5.086m0,13.644c5.673,0 9.03,-4.28 9.03,-8.558c0,-4.01 -3.08,-8.559 -9.03,-8.559c-5.951,0 -9.053,4.524 -9.053,8.559c0,4.253 3.265,8.558 9.053,8.558"/><path d="M72.725,8.56c0,3.056 -1.992,5.086 -4.978,5.086c-3.01,0 -5,-2.03 -5,-5.086c0,-3.057 1.99,-5.087 5,-5.087c2.986,0 4.978,2.03 4.978,5.087m4.052,0c0,-4.011 -3.079,-8.56 -9.03,-8.56c-5.95,0 -9.052,4.524 -9.052,8.56c0,4.255 3.265,8.559 9.052,8.559c5.674,0 9.03,-4.28 9.03,-8.559"/><path d="M16.57,0.305l-4.081,0l0,10.2l-8.739,-10.2l-3.747,0l0,16.682l4.083,0l0,-10.689l9.051,10.689l3.433,0" style="fill-rule:nonzero;"/><path d="M130,13.965l-7.971,-0.006l0,-13.623l-4.155,0l0,16.68l12.126,0.007" style="fill-rule:nonzero;"/><path d="M29.862,10.768l-5.132,0l2.443,-6.482m2.347,-3.987l-4.815,0l-6.722,16.682l4.4,0l1.246,-3.301l7.455,0l1.37,3.301l4.473,0"/><path d="M50.241,0.305l-16.233,0l0,3.057l6.039,0l0,13.625l4.155,0l0,-13.625l6.039,0" style="fill-rule:nonzero;"/><rect x="52.09" y="0.305" width="4.156" height="16.681"/><path d="M95.991,0.311l-4.081,0l0,10.2l-8.739,-10.2l-3.747,0l0,16.681l4.081,0l0,-10.689l9.053,10.689l3.433,0" style="fill-rule:nonzero;"/><path d="M109.23,10.774l-5.135,0l2.445,-6.482m2.348,-3.987l-4.816,0l-6.722,16.681l4.4,0l1.246,-3.301l7.457,0l1.369,3.301l4.472,0"/><path d="M16.803,28.983l-4.195,0l0,6.702l-8.392,0l0,-6.702l-4.195,0l0,16.682l4.195,0l0,-6.751l8.392,0l0,6.751l4.195,0" style="fill-rule:nonzero;"/><path d="M129.955,42.58l-8.141,0l0,-4.012l7.602,0l0,-3.057l-7.602,0l0,-3.498l7.969,0l0,-3.056l-12.125,0l0,16.68l12.297,0" style="fill-rule:nonzero;"/><path d="M113.364,30.074c-1.665,-0.806 -4.09,-1.37 -6.588,-1.37c-5.953,0 -10.068,3.498 -10.068,8.586c0,4.989 4.14,8.537 9.97,8.537c2.693,0 5.78,-0.954 7.029,-2.25l0,-6.826l-6.589,0l0,3.059l2.425,0l0,1.957c-1.225,0.487 -1.739,0.587 -2.767,0.587c-3.455,0 -5.781,-1.958 -5.781,-4.917c0,-2.471 1.592,-5.258 6.123,-5.258c2.058,0 4.115,0.512 6.246,1.541" style="fill-rule:nonzero;"/><path d="M88.775,39.43l-5.135,0l2.445,-6.482m2.347,-3.987l-4.817,0l-6.72,16.682l4.398,0l1.248,-3.302l7.455,0l1.369,3.302l4.474,0"/><path d="M78.294,28.956l-16.232,0l0,3.057l6.038,0l0,13.625l4.156,0l0,-13.625l6.038,0" style="fill-rule:nonzero;"/><rect x="55.131" y="28.962" width="4.156" height="16.681"/><path d="M41.856,32.019l2.102,0c1.564,0 2.37,0.637 2.37,1.883c0,1.418 -1.124,1.907 -2.272,1.907l-2.2,0m-4.156,-6.846l0,16.679l4.156,0l0,-6.774l1.198,0c2.248,0 2.907,3.204 4.693,6.774l4.572,0c-2.347,-4.891 -2.862,-6.946 -4.572,-7.803c1.907,-0.879 2.859,-2.249 2.859,-4.082c0,-2.497 -2.028,-4.794 -5.449,-4.794"/><path d="M33.426,42.596l-8.141,0l0,-4.012l7.604,0l0,-3.056l-7.604,0l0,-3.498l7.971,0l0,-3.057l-12.127,0l0,16.68l12.297,0" style="fill-rule:nonzero;"/><path d="M8.824,63.844l-5.266,-6.187l-3.557,0l0,16.681l4.087,0l0,-10.421l4.425,5.235l0.625,0l4.423,-5.235l0,10.421l4.088,0l0,-16.681l-3.559,0" style="fill-rule:nonzero;"/><path d="M129.989,71.294l-7.971,-0.006l0,-13.623l-4.155,0l0,16.68l12.126,0.006" style="fill-rule:nonzero;"/><path d="M70.009,65.981c0,3.056 -1.992,5.086 -4.978,5.086c-3.01,0 -5,-2.03 -5,-5.086c0,-3.057 1.99,-5.087 5,-5.087c2.986,0 4.978,2.03 4.978,5.087m4.052,0c0,-4.01 -3.079,-8.56 -9.03,-8.56c-5.95,0 -9.053,4.525 -9.053,8.56c0,4.255 3.265,8.559 9.053,8.559c5.672,0 9.03,-4.279 9.03,-8.559"/><path d="M33.192,71.285l-8.139,0l0,-4.01l7.602,0l0,-3.058l-7.602,0l0,-3.498l7.969,0l0,-3.057l-12.125,0l0,16.68l12.295,0" style="fill-rule:nonzero;"/><path d="M44.771,63.844l-5.266,-6.187l-3.557,0l0,16.681l4.087,0l0,-10.421l4.423,5.235l0.625,0l4.425,-5.235l0,10.421l4.087,0l0,-16.681l-3.557,0" style="fill-rule:nonzero;"/><path d="M80.709,60.708l2.103,0c1.563,0 2.37,0.637 2.37,1.883c0,1.418 -1.124,1.908 -2.273,1.908l-2.2,0m-4.156,-6.847l0,16.679l4.156,0l0,-6.774l1.199,0c2.247,0 2.907,3.204 4.692,6.774l4.571,0c-2.348,-4.891 -2.86,-6.946 -4.571,-7.801c1.906,-0.881 2.86,-2.251 2.86,-4.086c0,-2.495 -2.028,-4.792 -5.452,-4.792"/><rect x="92.543" y="57.644" width="4.156" height="16.681"/><path d="M109.763,68.113l-5.135,0l2.445,-6.482m2.347,-3.987l-4.815,0l-6.722,16.681l4.4,0l1.246,-3.301l7.455,0l1.371,3.301l4.472,0"/><path d="M87.766,89.424l2.611,0c3.855,0 5.365,2.422 5.365,5.284c0,2.446 -1.221,5.283 -5.317,5.283l-2.659,0m-4.072,-13.625l0,16.681l6.754,0c6.516,0 9.486,-3.521 9.486,-8.315c0,-4.574 -3.066,-8.366 -9.031,-8.366"/><path d="M80.443,86.366l-4.081,0l0,10.2l-8.739,-10.2l-3.745,0l0,16.682l4.081,0l0,-10.689l9.051,10.689l3.433,0" style="fill-rule:nonzero;"/><path d="M56.824,86.343l0,9.296c0,2.984 -2.017,4.133 -4.204,4.133c-2.379,0 -4.104,-1.444 -4.104,-3.841l0,-9.588l-4.128,0l0,9.491c0,5.161 3.473,7.411 8.282,7.411c4.542,0 8.283,-1.908 8.283,-7.436l0,-9.466" style="fill-rule:nonzero;"/><path d="M42.051,86.355l-11.488,0l0,16.681l4.155,0l0,-6.849l7.333,0l0,-3.056l-7.333,0l0,-3.72l7.333,0" style="fill-rule:nonzero;"/><path d="M104.458,161.139c-7.537,-4.187 -15.074,-1.329 -22.363,1.38c-4.188,1.28 -9.446,0.787 -13.535,-0.444c5.838,-0.382 11.217,-3.584 15.21,-8.831c3.989,-5.241 4.876,-14.221 13.101,-14.814c1.872,-0.197 3.448,0.149 4.878,1.034c1.526,1.577 1.969,3.892 1.428,6.06c-1.183,3.201 -4.532,5.566 -7.833,5.91c-1.231,0.05 -2.412,-0.048 -3.299,-0.837c-0.591,-0.688 -1.231,-1.329 -1.281,-2.265l-0.247,0c-0.246,2.462 0.494,5.073 2.808,6.403c2.315,0.935 4.433,1.331 6.748,0.1c3.941,-2.365 5.96,-6.454 5.321,-10.986l-0.346,-1.774c3.892,8.031 4.976,17.833 3.202,27.193c0.247,-3.351 -0.934,-6.306 -3.792,-8.129m-15.122,35.911c2.412,-2.266 3.252,-5.469 2.462,-8.719c-1.871,-8.376 -9.949,-14.189 -16.798,-18.818c-1.822,-1.625 -4.347,-3.731 -5.971,-5.652c8.521,7.437 20.751,1.663 29.863,-0.161c2.857,-0.516 5.912,0.493 7.34,3.202c1.084,2.07 0.197,4.482 -1.084,6.159c-1.824,1.821 -4.089,2.905 -6.847,2.265c-1.921,-0.344 -4.039,-1.184 -4.828,-3.202c-0.394,-1.281 0.149,-2.611 0.443,-3.548c-1.772,1.38 -2.758,3.29 -2.709,5.912c0.32,2.243 1.547,3.686 3.302,4.729c2.561,1.478 6.304,0.838 8.519,-0.837c1.824,-1.281 3.251,-3.104 4.138,-4.975c-2.611,8.917 -9.309,18.275 -17.83,23.645m-1.43,-1.625c-1.527,1.475 -3.545,2.068 -5.663,1.772c-2.956,-0.69 -5.075,-3.645 -5.469,-6.501c-0.098,-1.283 0.199,-2.365 0.837,-3.351c0.69,-0.887 1.774,-0.937 2.514,-1.527c-1.774,-0.098 -3.745,0.049 -5.125,1.33c-2.068,1.921 -3.003,4.582 -2.215,7.438c1.083,3.104 4.383,4.975 7.437,5.419c1.43,0.246 3.301,0.147 4.729,-0.344c-5.22,2.609 -11.033,4.136 -17.043,4.629l0,-39.751c2.462,10.196 13.891,14.826 19.752,23.299c1.133,2.068 1.923,5.469 0.246,7.587m-22.559,-78.619c15.861,0.049 30.393,8.324 38.274,22.561c-1.774,-2.514 -4.385,-4.041 -7.438,-4.041c-9.164,0.247 -15.246,9.693 -18.423,17.291c-2.611,3.793 -6.256,6.354 -9.852,8.374l0,-11.675l5.567,0l8.521,-26.157c-0.05,-0.097 0.05,-0.147 0.099,-0.246l-0.099,-0.098l-9.36,6.404c1.133,0.394 2.71,0.541 3.104,1.971c0,3.645 -1.675,6.994 -4.876,8.865c-0.591,0.296 -1.281,-0.048 -1.774,-0.443c-1.822,-2.807 -1.921,-6.798 -1.281,-10.196c0.493,-0.985 1.824,-0.541 2.709,-0.788c-1.526,-3.892 -3.447,-7.881 -5.171,-11.822m-2.955,12.856c0.392,3.645 0.541,7.881 -2.168,10.393c-2.366,0.346 -3.991,-2.611 -4.926,-4.333c-0.69,-1.627 -1.873,-3.842 -0.393,-5.469c0.737,-0.591 1.624,-0.788 2.511,-1.034c-3.104,-2.218 -6.256,-4.236 -9.36,-6.404l0.936,3.449l7.488,22.905l5.665,0.246l0,11.576c-6.847,-2.808 -11.281,-9.851 -13.841,-16.207c-3.326,-6.784 -9.951,-10.689 -17.144,-9.062c-1.428,0.638 -2.856,1.428 -4.037,2.708c8.126,-13.594 22.116,-21.427 37.484,-21.624l-5.172,11.675c0.936,0.491 2.414,-0.099 2.957,1.181m-0.247,74.628c-5.96,-0.543 -11.576,-1.921 -16.698,-4.532c3.446,0.887 7.043,0.197 9.605,-2.118c1.921,-1.871 3.202,-4.482 2.118,-7.191c-0.394,-1.674 -1.822,-3.4 -3.449,-4.138c-1.231,-0.296 -2.561,-0.937 -3.891,-0.346c1.231,0.296 2.561,1.084 3.102,2.366c0.789,2.61 -0.195,5.073 -1.919,6.945c-1.577,1.674 -3.695,2.267 -6.01,1.774c-1.33,-0.543 -3.104,-1.084 -3.548,-2.709c-1.674,-5.222 2.808,-9.015 6.159,-12.415c5.761,-4.926 12.66,-10.246 14.531,-17.486m-38.766,9.802c1.527,3.054 4.679,5.27 7.881,5.813c2.758,0.196 5.271,-0.987 6.65,-3.349c0.837,-1.331 1.231,-3.202 0.69,-4.829c-0.493,-1.231 -1.281,-2.462 -2.464,-3.301c0.296,0.986 0.936,2.414 0.344,3.647c-0.985,2.118 -3.15,2.906 -5.22,3.202c-2.956,0.197 -5.861,-0.837 -7.191,-3.645c-0.79,-1.677 -1.084,-4.188 0.244,-5.716c4.729,-5.023 11.307,-0.726 16.651,0.247c5.362,0.977 12.02,2.957 16.894,-0.344l3.068,-1.959c-7.637,8.412 -21.342,13.338 -22.919,25.357c-0.294,2.759 0.247,5.419 2.267,7.339c-8.177,-5.517 -14.187,-13.792 -16.895,-22.462m-1.577,-6.01c-1.675,-8.621 -0.295,-17.782 2.955,-25.22c-0.788,4.532 0.839,8.818 4.631,11.477c1.772,1.232 4.039,1.33 6.157,0.739c2.07,-0.64 3.793,-2.857 3.989,-4.975c-0.047,-0.788 0.199,-1.331 -0.097,-1.921c-0.493,1.083 -1.33,2.808 -2.858,2.955c-3.299,0.543 -6.107,-0.985 -8.372,-3.399c-1.33,-1.674 -1.923,-3.941 -1.283,-6.159c0.396,-1.081 1.134,-2.362 2.365,-2.855c4.652,-1.591 7.678,-0.666 10.245,2.855c1.935,3.044 2.808,5.765 4.729,8.377c3.399,6.403 9.52,11.895 17.106,11.847c-6.799,2.462 -14.481,0.43 -20.751,-1.996c-6.847,-2.192 -13.694,-1.774 -17.633,3.743c-0.788,1.33 -1.183,2.858 -1.183,4.532m43.249,-56.647c-26.931,0 -48.764,21.833 -48.764,48.766c0,26.931 21.833,48.764 48.764,48.764c26.931,0 48.764,-21.833 48.764,-48.764c0,-26.933 -21.833,-48.766 -48.764,-48.766"/></g></svg>